<svg width="48" height="37" viewBox="0 0 48 37" fill="none" xmlns="http://www.w3.org/2000/svg">
<path d="M47.9344 18.6278C47.934 18.5069 47.9335 18.3694 47.9276 18.21C47.9206 17.7646 47.9081 17.2643 47.8955 16.7311C47.8472 15.1972 47.7668 13.6689 47.644 12.2288C47.4765 10.2444 47.2354 8.59016 46.9103 7.34852C46.5673 6.05276 45.9 4.87204 44.9749 3.92435C44.0498 2.97666 42.8995 2.29521 41.6388 1.94811C40.1253 1.53464 37.1646 1.28483 32.9967 1.13749C31.0143 1.06627 28.8931 1.02294 26.772 1.00161C26.0294 0.992775 25.3401 0.989278 24.7204 0.98558L23.1496 0.990142C22.5299 0.99744 21.8407 1.00494 21.0981 1.01809C18.9772 1.05174 16.8564 1.10739 14.8745 1.19012C10.7079 1.36716 7.74366 1.63419 6.23854 2.05092C4.98002 2.40448 3.83421 3.09231 2.91593 4.04548C1.99765 4.99865 1.33915 6.18369 1.00643 7.48183C0.685052 8.72535 0.461341 10.381 0.308284 12.3662C0.195987 13.8071 0.126752 15.3358 0.0895925 16.8699C0.0755051 17.4033 0.071983 17.9036 0.0682609 18.349C0.068841 18.5084 0.0639986 18.6459 0.0644388 18.7668L0.0655591 19.0747C0.0659992 19.1957 0.0664993 19.3332 0.0724221 19.4926C0.0793852 19.9379 0.091891 20.4382 0.104517 20.9715C0.15284 22.5054 0.233198 24.0336 0.355978 25.4738C0.523479 27.4581 0.764576 29.1124 1.08966 30.354C1.7831 32.9857 3.79949 35.0581 6.36117 35.7545C7.86931 36.1679 10.8354 36.4177 15.0033 36.5651C16.9856 36.6363 19.1069 36.6796 21.228 36.701C21.9706 36.7098 22.6599 36.7133 23.2796 36.717L24.8504 36.7124C25.4701 36.7051 26.1593 36.6976 26.9019 36.6845C29.0228 36.6508 31.1436 36.5952 33.1255 36.5124C37.2921 36.3354 40.2563 36.0684 41.7615 35.6516C44.318 34.9405 46.3193 32.8618 46.9936 30.2207C47.3149 28.9772 47.5387 27.3216 47.6917 25.3363C47.804 23.8955 47.8732 22.3668 47.9104 20.8327C47.9245 20.2993 47.928 19.799 47.9317 19.3536C47.9312 19.1941 47.936 19.0567 47.9356 18.9357L47.9344 18.6278ZM44.0888 18.9249C44.0892 19.0404 44.0897 19.1668 44.0849 19.3153C44.0811 19.7441 44.0721 20.217 44.0633 20.7284C44.0312 22.191 43.9617 23.6537 43.8545 25.0121C43.7167 26.7829 43.5189 28.235 43.2714 29.2089C42.9447 30.4799 41.9761 31.4889 40.7485 31.8278C39.6276 32.139 36.8023 32.3946 32.9615 32.5542C31.017 32.6368 28.9229 32.6924 26.834 32.726C26.1021 32.7391 25.4236 32.7466 24.8146 32.7483L23.2866 32.7528L21.267 32.7421C19.1779 32.7207 17.0888 32.6773 15.1384 32.606C11.2965 32.4632 8.46405 32.2295 7.34632 31.9249C6.11627 31.5875 5.14027 30.5897 4.80441 29.3206C4.54976 28.3482 4.34146 26.8972 4.19077 25.1273C4.07363 23.7695 3.99886 22.3072 3.95079 20.8449C3.93291 20.3336 3.92582 19.8553 3.91894 19.4319C3.9184 19.2835 3.91258 19.1515 3.91218 19.0416L3.91122 18.7777C3.9108 18.6622 3.91034 18.5357 3.91514 18.3873C3.91892 17.9584 3.92788 17.4855 3.93671 16.9742C3.96879 15.5116 4.03826 14.0489 4.14552 12.6905C4.28332 10.9197 4.48106 9.46758 4.72863 8.49368C5.05525 7.22265 6.02395 6.21367 7.25153 5.87472C8.37236 5.56356 11.1977 5.30794 15.0385 5.14833C16.983 5.06571 19.0771 5.01015 21.166 4.97659C21.8979 4.96347 22.5764 4.956 23.1854 4.95423L24.7134 4.94979L26.733 4.96042C28.8221 4.98185 30.9112 5.02526 32.8616 5.09657C36.7035 5.23936 39.5359 5.47306 40.6537 5.77771C41.8837 6.11503 42.8597 7.11286 43.1956 8.38197C43.4502 9.35441 43.6585 10.8053 43.8092 12.5753C43.9264 13.933 44.0011 15.3953 44.0492 16.8577C44.0671 17.369 44.0742 17.8473 44.0811 18.2706C44.0816 18.4191 44.0874 18.551 44.0878 18.661L44.0888 18.9249ZM19.2719 26.2326L31.6398 18.7741L19.2182 11.4976L19.2719 26.2326Z" fill="white"/>
</svg>
